<svg xmlns="http://www.w3.org/2000/svg" xmlns:xlink="http://www.w3.org/1999/xlink" preserveAspectRatio="xMidYMid" width="1000" height="200" viewBox="0 0 1000 200">
  <defs>
    <style>
      .cls-1 {
        fill: #fff;
      }

      .cls-1, .cls-2, .cls-3 {
        fill-rule: evenodd;
      }

      .cls-2 {
        fill: #666;
      }

      .cls-3 {
        fill: #ccc;
      }
    </style>
  </defs>
  <path d="M48.015,56.516 L35.000,43.479 L36.476,42.002 L49.490,55.040 L62.524,42.002 L64.000,43.479 L49.490,57.993 L49.489,57.992 L49.488,57.993 L48.229,56.731 L48.014,56.516 L48.015,56.516 Z" class="cls-1"/>
  <path d="M148.015,56.516 L135.000,43.479 L136.476,42.002 L149.490,55.040 L162.524,42.002 L164.000,43.479 L149.490,57.993 L149.489,57.992 L149.488,57.993 L148.229,56.731 L148.014,56.516 L148.015,56.516 Z" class="cls-2"/>
  <path d="M258.428,48.627 C258.420,48.618 258.411,48.613 258.402,48.606 L244.271,34.549 C243.518,33.800 242.296,33.800 241.543,34.549 C240.789,35.299 240.789,36.514 241.543,37.264 L254.332,49.985 L241.543,62.707 C240.789,63.457 240.789,64.672 241.543,65.421 C242.296,66.171 243.518,66.171 244.271,65.421 L258.412,51.357 C258.417,51.352 258.422,51.349 258.427,51.344 C258.804,50.969 258.992,50.478 258.992,49.986 C258.993,49.494 258.805,49.001 258.428,48.627 Z" class="cls-3"/>
  <path d="M358.428,48.627 C358.420,48.618 358.411,48.613 358.402,48.606 L344.271,34.549 C343.518,33.800 342.296,33.800 341.543,34.549 C340.789,35.299 340.789,36.514 341.543,37.264 L354.332,49.985 L341.543,62.707 C340.789,63.457 340.789,64.672 341.543,65.421 C342.296,66.171 343.518,66.171 344.271,65.421 L358.412,51.357 C358.417,51.352 358.422,51.349 358.427,51.344 C358.804,50.969 358.993,50.478 358.993,49.986 C358.993,49.494 358.805,49.001 358.428,48.627 Z" class="cls-2"/>
  <path d="M441.572,48.627 C441.580,48.618 441.589,48.613 441.598,48.606 L455.729,34.549 C456.482,33.800 457.704,33.800 458.457,34.549 C459.211,35.299 459.211,36.514 458.457,37.264 L445.668,49.985 L458.457,62.707 C459.211,63.457 459.211,64.672 458.457,65.421 C457.704,66.171 456.482,66.171 455.729,65.421 L441.588,51.357 C441.583,51.352 441.578,51.349 441.573,51.344 C441.196,50.969 441.007,50.478 441.007,49.986 C441.007,49.494 441.195,49.001 441.572,48.627 Z" class="cls-3"/>
  <path d="M47.672,140.526 C46.950,140.970 46.053,141.543 44.982,142.245 C43.911,142.947 42.898,143.801 41.943,144.807 C41.011,145.790 40.219,146.907 39.567,148.158 C38.915,149.410 38.589,150.796 38.589,152.316 C38.589,154.468 39.020,156.206 39.882,157.527 C40.743,158.849 42.175,159.510 44.179,159.510 C45.459,159.510 46.467,159.083 47.201,158.227 C47.934,157.371 48.301,156.451 48.301,155.467 C48.301,154.084 47.887,153.036 47.061,152.320 C46.234,151.606 45.098,151.248 43.655,151.248 L41.978,151.248 C42.117,150.034 42.362,149.041 42.711,148.270 C43.061,147.499 43.561,146.763 44.214,146.062 C44.912,145.315 45.599,144.714 46.275,144.258 C46.950,143.802 47.835,143.259 48.930,142.628 L47.672,140.526 ZM60.599,140.526 C59.876,140.970 58.980,141.543 57.909,142.245 C56.837,142.947 55.824,143.801 54.869,144.807 C53.937,145.790 53.145,146.907 52.493,148.158 C51.841,149.410 51.515,150.796 51.515,152.316 C51.515,154.468 51.946,156.206 52.808,157.527 C53.669,158.849 55.102,159.510 57.105,159.510 C58.386,159.510 59.393,159.083 60.127,158.227 C60.861,157.371 61.227,156.451 61.227,155.467 C61.227,154.084 60.814,153.036 59.987,152.320 C59.160,151.606 58.025,151.248 56.581,151.248 L54.904,151.248 C55.044,150.034 55.282,149.047 55.620,148.287 C55.958,147.528 56.464,146.786 57.140,146.062 C57.839,145.315 58.525,144.714 59.201,144.258 C59.876,143.802 60.761,143.259 61.856,142.628 L60.599,140.526 Z" class="cls-1"/>
  <path d="M147.196,142.371 C146.334,141.047 144.913,140.385 142.934,140.385 C141.653,140.385 140.640,140.813 139.895,141.668 C139.149,142.524 138.777,143.432 138.777,144.393 C138.777,145.729 139.184,146.772 140.000,147.522 C140.814,148.272 141.956,148.647 143.423,148.647 L145.100,148.647 C145.007,149.889 144.774,150.891 144.401,151.653 C144.029,152.414 143.528,153.147 142.899,153.850 C142.433,154.389 141.764,154.957 140.890,155.555 C140.017,156.152 139.103,156.733 138.148,157.295 L139.336,159.369 C140.011,159.018 140.908,158.461 142.026,157.699 C143.144,156.938 144.168,156.077 145.100,155.115 C146.008,154.178 146.800,153.071 147.476,151.793 C148.151,150.516 148.489,149.104 148.489,147.557 C148.489,145.424 148.058,143.696 147.196,142.371 ZM160.123,142.371 C159.261,141.047 157.840,140.385 155.860,140.385 C154.579,140.385 153.566,140.813 152.821,141.668 C152.075,142.524 151.703,143.432 151.703,144.393 C151.703,145.729 152.110,146.772 152.926,147.522 C153.741,148.272 154.882,148.647 156.350,148.647 L158.027,148.647 C157.933,149.889 157.700,150.891 157.328,151.653 C156.955,152.414 156.454,153.147 155.826,153.850 C155.359,154.389 154.690,154.957 153.817,155.555 C152.943,156.152 152.029,156.733 151.074,157.295 L152.262,159.369 C152.937,159.018 153.834,158.461 154.952,157.699 C156.070,156.938 157.095,156.077 158.027,155.115 C158.935,154.178 159.726,153.071 160.402,151.793 C161.077,150.516 161.415,149.104 161.415,147.557 C161.415,145.424 160.984,143.696 160.123,142.371 Z" class="cls-1"/>
  <path d="M541.572,48.627 C541.580,48.618 541.589,48.613 541.598,48.606 L555.729,34.549 C556.482,33.800 557.704,33.800 558.457,34.549 C559.211,35.299 559.211,36.514 558.457,37.264 L545.668,49.985 L558.457,62.707 C559.211,63.457 559.211,64.672 558.457,65.421 C557.704,66.171 556.482,66.171 555.729,65.421 L541.588,51.357 C541.583,51.352 541.578,51.349 541.573,51.344 C541.196,50.969 541.008,50.478 541.008,49.986 C541.007,49.494 541.195,49.001 541.572,48.627 Z" class="cls-2"/>
  <path d="M637.000,58.000 L637.000,56.000 L661.000,56.000 L661.000,58.000 L637.000,58.000 ZM637.000,49.000 L661.000,49.000 L661.000,51.000 L637.000,51.000 L637.000,49.000 ZM637.000,42.000 L661.000,42.000 L661.000,44.000 L637.000,44.000 L637.000,42.000 Z" class="cls-1"/>
  <path d="M737.000,58.000 L737.000,56.000 L761.000,56.000 L761.000,58.000 L737.000,58.000 ZM737.000,49.000 L761.000,49.000 L761.000,51.000 L737.000,51.000 L737.000,49.000 ZM737.000,42.000 L761.000,42.000 L761.000,44.000 L737.000,44.000 L737.000,42.000 Z" class="cls-2"/>
  <path d="M845.683,62.246 L821.001,37.775 L823.799,35.004 L848.482,59.476 L873.201,35.004 L875.999,37.775 L848.481,65.018 L848.480,65.015 L848.478,65.018 L846.090,62.650 L845.683,62.247 L845.683,62.246 Z" class="cls-1"/>
</svg>
